<svg xmlns="http://www.w3.org/2000/svg" viewBox="0 0 270.345 71.118"><g id="Camada_2" data-name="Camada 2"><g id="Camada_1-2" data-name="Camada 1"><path d="M188.823,56.584a20.373,20.373,0,0,1-8.091-1.624,20.778,20.778,0,0,1-6.67-4.524,21.266,21.266,0,0,1-4.5-6.728,20.861,20.861,0,0,1-1.624-8.236,20.365,20.365,0,0,1,1.653-8.207,21.186,21.186,0,0,1,4.553-6.67,20.348,20.348,0,0,1,6.786-4.437,22.291,22.291,0,0,1,8.41-1.566,22.659,22.659,0,0,1,9.251,1.856,18.985,18.985,0,0,1,7.047,5.278L200.25,27.12a12.085,12.085,0,0,0-4.7-3.886,14.56,14.56,0,0,0-6.263-1.334,13.581,13.581,0,0,0-6.873,1.711,12.076,12.076,0,0,0-4.669,4.785,14.5,14.5,0,0,0-1.683,7.076,14.742,14.742,0,0,0,1.683,7.192,12.2,12.2,0,0,0,11.019,6.5,14.407,14.407,0,0,0,6.612-1.392,9.514,9.514,0,0,0,4.176-4.147A14.375,14.375,0,0,0,201,36.864l5.163,3.6L188.3,40.286v-6.96h20.823v1.16a25.933,25.933,0,0,1-2.611,12.238,17.366,17.366,0,0,1-7.192,7.4A21.8,21.8,0,0,1,188.823,56.584Z" style="fill:#2d6a4f"/><path d="M234.758,56.584a21.231,21.231,0,0,1-8.322-1.624,20.943,20.943,0,0,1-12.9-19.488,20.656,20.656,0,0,1,1.624-8.207,21.376,21.376,0,0,1,4.5-6.7,19.953,19.953,0,0,1,6.7-4.466A22.9,22.9,0,0,1,243,16.1a19.973,19.973,0,0,1,6.7,4.466,21.294,21.294,0,0,1,4.5,6.728,21.7,21.7,0,0,1,0,16.472,21.542,21.542,0,0,1-4.466,6.728,19.928,19.928,0,0,1-6.7,4.495A21.424,21.424,0,0,1,234.758,56.584Zm-.115-7.308a13.1,13.1,0,0,0,6.815-1.74,11.954,11.954,0,0,0,4.552-4.843,15.348,15.348,0,0,0,1.624-7.221,15.711,15.711,0,0,0-.927-5.51,12.537,12.537,0,0,0-2.668-4.321,12.014,12.014,0,0,0-4.089-2.813,13.606,13.606,0,0,0-5.307-.986,13,13,0,0,0-6.728,1.711,12.058,12.058,0,0,0-4.553,4.785,14.827,14.827,0,0,0-1.653,7.134,16.344,16.344,0,0,0,.928,5.626,12.275,12.275,0,0,0,2.639,4.35,12.071,12.071,0,0,0,4.118,2.813A13.362,13.362,0,0,0,234.643,49.276Z" style="fill:#2d6a4f"/><path d="M28.174,48.334H11.545L8.793,56.29H0L15.015,14.477h9.75L39.779,56.29H30.926Zm-2.273-6.7L19.86,24.168,13.818,41.635Z" style="fill:#2d6a4f"/><path d="M74.264,33.739A11.656,11.656,0,0,1,69.3,38.465a18.068,18.068,0,0,1-8.524,1.794h-7V56.29H45.4V14.537H60.775a18.59,18.59,0,0,1,8.255,1.675,11.672,11.672,0,0,1,5.114,4.606,13.512,13.512,0,0,1,.12,12.921Zm-8.7-1.825a5.841,5.841,0,0,0,1.675-4.456q0-6.1-6.819-6.1h-6.64V33.5h6.64Q63.884,33.5,65.56,31.914Z" style="fill:#2d6a4f"/><path d="M90.145,21.3V31.765H104.2V38.4H90.145V49.471H106V56.29H81.77V14.477H106V21.3Z" style="fill:#2d6a4f"/><path d="M138.6,56.29l-9.033-14.057L121.37,56.29h-9.452l13.161-21.056-13.34-20.7h9.631l9.032,14,8.135-14h9.453l-13.1,21L148.229,56.29Z" style="fill:#2d6a4f"/><path d="M234.787,0H189.7c-19.956,0-36.684,16.332-36.285,36.284a35.559,35.559,0,0,0,35.551,34.834h45.084c19.956,0,36.684-16.332,36.285-36.284A35.559,35.559,0,0,0,234.787,0ZM234.2,62.229l-9.008-.023v.023H188.97a26.67,26.67,0,0,1-26.66-27.395c.386-14.542,12.7-25.945,27.246-25.945h45.229a26.67,26.67,0,0,1,26.661,27.388C261.064,50.822,248.751,62.229,234.2,62.229Z" style="fill:#53b688"/></g></g></svg>